<?xml version="1.0" standalone="no"?><!-- Generator: Gravit.io --><svg xmlns="http://www.w3.org/2000/svg" xmlns:xlink="http://www.w3.org/1999/xlink" style="isolation:isolate" viewBox="0 0 30 30" width="30" height="30"><defs><clipPath id="_clipPath_8278wALgoQVpsQTv6LTK8kGbbKla6duL"><rect width="30" height="30"/></clipPath></defs><g clip-path="url(#_clipPath_8278wALgoQVpsQTv6LTK8kGbbKla6duL)"><clipPath id="_clipPath_ITmnIzs0OV2C0Mg0IsRGxENm5A2K64Ks"><rect x="0" y="0" width="30" height="30" transform="matrix(1,0,0,1,0,0)" fill="rgb(255,255,255)"/></clipPath><g clip-path="url(#_clipPath_ITmnIzs0OV2C0Mg0IsRGxENm5A2K64Ks)"><g id="Group"><g id="Group"><g id="Group"><path d=" M 25.625 11.25 L 23.75 11.25 L 23.75 8.75 C 23.75 3.925 19.825 0 15 0 C 10.175 0 6.25 3.925 6.25 8.75 L 6.25 11.25 L 4.375 11.25 C 4.03 11.25 3.75 11.53 3.75 11.875 L 3.75 27.5 C 3.75 28.879 4.871 30 6.25 30 L 23.75 30 C 25.129 30 26.25 28.879 26.25 27.5 L 26.25 11.875 C 26.25 11.53 25.97 11.25 25.625 11.25 Z  M 16.871 24.306 C 16.891 24.482 16.834 24.66 16.716 24.792 C 16.597 24.924 16.428 25 16.25 25 L 13.75 25 C 13.572 25 13.403 24.924 13.284 24.792 C 13.166 24.66 13.109 24.482 13.129 24.306 L 13.523 20.76 C 12.883 20.295 12.5 19.558 12.5 18.75 C 12.5 17.371 13.621 16.25 15 16.25 C 16.379 16.25 17.5 17.371 17.5 18.75 C 17.5 19.558 17.117 20.295 16.477 20.76 L 16.871 24.306 Z  M 20 11.25 L 10 11.25 L 10 8.75 C 10 5.993 12.243 3.75 15 3.75 C 17.757 3.75 20 5.993 20 8.75 L 20 11.25 L 20 11.25 Z " fill="rgb(0,0,0)"/></g></g></g></g></g></svg>