<?xml version="1.0" standalone="no"?><!-- Generator: Gravit.io --><svg xmlns="http://www.w3.org/2000/svg" xmlns:xlink="http://www.w3.org/1999/xlink" style="isolation:isolate" viewBox="0 0 35 35" width="35" height="35"><defs><clipPath id="_clipPath_9r55idjn3HZs2ditPElEDEKrN9WvUPjM"><rect width="35" height="35"/></clipPath></defs><g clip-path="url(#_clipPath_9r55idjn3HZs2ditPElEDEKrN9WvUPjM)"><clipPath id="_clipPath_VHgv4eopDHX2iRgcnd3JZjoElY1Xs1c3"><rect x="0" y="0" width="35" height="35" transform="matrix(1,0,0,1,0,0)" fill="rgb(255,255,255)"/></clipPath><g clip-path="url(#_clipPath_VHgv4eopDHX2iRgcnd3JZjoElY1Xs1c3)"><g id="Group"><g id="Group"><path d=" M 17.5 17.117 C 21.391 17.117 24.546 13.286 24.546 8.559 C 24.546 3.832 23.51 0 17.5 0 C 11.49 0 10.454 3.832 10.454 8.559 C 10.454 13.286 13.609 17.117 17.5 17.117 Z " fill="rgb(0,0,0)"/><path d=" M 4.191 30.185 C 4.19 29.897 4.189 30.104 4.191 30.185 L 4.191 30.185 Z " fill="rgb(0,0,0)"/><path d=" M 30.808 30.41 C 30.812 30.332 30.809 29.863 30.808 30.41 L 30.808 30.41 Z " fill="rgb(0,0,0)"/><path d=" M 30.793 29.84 C 30.662 21.606 29.587 19.259 21.358 17.774 C 21.358 17.774 20.2 19.25 17.5 19.25 C 14.8 19.25 13.641 17.774 13.641 17.774 C 5.502 19.243 4.361 21.555 4.211 29.572 C 4.199 30.227 4.193 30.261 4.191 30.185 C 4.192 30.328 4.192 30.591 4.192 31.05 C 4.192 31.05 6.152 35 17.5 35 C 28.848 35 30.807 31.05 30.807 31.05 C 30.807 30.755 30.808 30.55 30.808 30.411 C 30.806 30.458 30.801 30.366 30.793 29.84 Z " fill="rgb(0,0,0)"/></g></g></g></g></svg>