<?xml version="1.0" standalone="no"?><!-- Generator: Gravit.io --><svg xmlns="http://www.w3.org/2000/svg" xmlns:xlink="http://www.w3.org/1999/xlink" style="isolation:isolate" viewBox="0 0 50 50" width="50" height="50"><defs><clipPath id="_clipPath_bgJilrJxscyJ07s5oKJ5bYHseU1cxi3o"><rect width="50" height="50"/></clipPath></defs><g clip-path="url(#_clipPath_bgJilrJxscyJ07s5oKJ5bYHseU1cxi3o)"><clipPath id="_clipPath_QVcFgpDiXRER3aduSI6YKhVU5E9zgUGV"><rect x="-12.5" y="-12.5" width="75" height="75" transform="matrix(1,0,0,1,0,0)" fill="rgb(255,255,255)"/></clipPath><g clip-path="url(#_clipPath_QVcFgpDiXRER3aduSI6YKhVU5E9zgUGV)"><g id="Group"><clipPath id="_clipPath_jmytRc1Q14p41JLzjd4vIpYwYbclOaUd"><rect x="-12.5" y="-12.5" width="75" height="75" transform="matrix(1,0,0,1,0,0)" fill="rgb(255,255,255)"/></clipPath><g clip-path="url(#_clipPath_jmytRc1Q14p41JLzjd4vIpYwYbclOaUd)"><g id="Group"><g id="Group"><rect x="11.875" y="24.25" width="26.25" height="18.807" transform="matrix(1,0,0,1,0,0)" fill="none" vector-effect="non-scaling-stroke" stroke-width="3" stroke="rgb(255,255,255)" stroke-linejoin="miter" stroke-linecap="butt" stroke-miterlimit="4"/><path d=" M 41.479 25 L 24.999 24.976 L 8.519 24.952 C 8.084 24.952 7.98 24.7 8.286 24.391 L 16.402 16.191 L 24.519 7.991 C 24.664 7.842 24.864 7.759 25.071 7.759 C 25.279 7.759 25.479 7.842 25.624 7.991 L 33.67 16.212 L 41.716 24.432 C 42.02 24.749 41.914 25.001 41.479 25 Z " fill="none" vector-effect="non-scaling-stroke" stroke-width="3" stroke="rgb(255,255,255)" stroke-linejoin="miter" stroke-linecap="butt" stroke-miterlimit="4"/></g></g></g><rect x="22.75" y="33.625" width="4.5" height="9.346" transform="matrix(1,0,0,1,0,0)" fill="none" vector-effect="non-scaling-stroke" stroke-width="3" stroke="rgb(255,255,255)" stroke-linejoin="miter" stroke-linecap="butt" stroke-miterlimit="4"/></g></g></g></svg>