<?xml version="1.0" standalone="no"?><!-- Generator: Gravit.io --><svg xmlns="http://www.w3.org/2000/svg" xmlns:xlink="http://www.w3.org/1999/xlink" style="isolation:isolate" viewBox="0 0 28 28" width="28" height="28"><defs><clipPath id="_clipPath_s35dMkXnah1myKTth316ALelMIbSIwbu"><rect width="28" height="28"/></clipPath></defs><g clip-path="url(#_clipPath_s35dMkXnah1myKTth316ALelMIbSIwbu)"><clipPath id="_clipPath_7rNh2RZr1ZG9HnN1FuNqHJ9otX19ldm2"><rect x="0" y="0" width="28" height="28" transform="matrix(1,0,0,1,0,0)" fill="rgb(255,255,255)"/></clipPath><g clip-path="url(#_clipPath_7rNh2RZr1ZG9HnN1FuNqHJ9otX19ldm2)"><g id="Group"><g id="Group"><path d=" M 13.999 0 C 6.268 0 0 6.268 0 13.999 C 0 21.73 6.268 28 13.999 28 C 21.73 28 28 21.73 28 13.999 C 28 6.268 21.73 0 13.999 0 Z  M 16.914 21.697 C 16.193 21.982 15.62 22.197 15.189 22.347 C 14.76 22.496 14.261 22.571 13.694 22.571 C 12.821 22.571 12.142 22.357 11.659 21.932 C 11.175 21.506 10.934 20.967 10.934 20.312 C 10.934 20.057 10.952 19.796 10.988 19.531 C 11.025 19.265 11.083 18.967 11.162 18.631 L 12.064 15.445 C 12.143 15.139 12.212 14.849 12.267 14.579 C 12.321 14.306 12.347 14.056 12.347 13.829 C 12.347 13.423 12.263 13.139 12.096 12.979 C 11.926 12.819 11.608 12.741 11.132 12.741 C 10.9 12.741 10.661 12.775 10.415 12.847 C 10.173 12.922 9.961 12.99 9.788 13.056 L 10.027 12.075 C 10.617 11.834 11.182 11.628 11.722 11.457 C 12.261 11.284 12.77 11.199 13.25 11.199 C 14.117 11.199 14.785 11.41 15.256 11.827 C 15.724 12.245 15.96 12.789 15.96 13.458 C 15.96 13.596 15.943 13.841 15.911 14.189 C 15.879 14.539 15.819 14.858 15.731 15.15 L 14.834 18.326 C 14.76 18.581 14.695 18.873 14.636 19.199 C 14.578 19.525 14.549 19.774 14.549 19.941 C 14.549 20.363 14.643 20.651 14.833 20.804 C 15.02 20.956 15.348 21.033 15.813 21.033 C 16.032 21.033 16.277 20.994 16.555 20.919 C 16.83 20.843 17.029 20.775 17.154 20.717 L 16.914 21.697 Z  M 16.755 8.805 C 16.337 9.193 15.833 9.388 15.244 9.388 C 14.656 9.388 14.149 9.193 13.727 8.805 C 13.307 8.416 13.095 7.943 13.095 7.391 C 13.095 6.84 13.309 6.366 13.727 5.973 C 14.149 5.58 14.656 5.384 15.244 5.384 C 15.833 5.384 16.338 5.58 16.755 5.973 C 17.173 6.366 17.383 6.84 17.383 7.391 C 17.383 7.944 17.173 8.416 16.755 8.805 Z " fill="rgb(158,158,158)"/></g></g></g></g></svg>